<svg width="25" height="25" viewBox="0 0 25 25" fill="none" xmlns="http://www.w3.org/2000/svg">
<g clip-path="url(#clip0_817_2630)">
<path d="M13.6766 23.2408L5.63569 21.0687C5.17053 20.9428 4.73807 20.7179 4.36791 20.4093C3.99775 20.1007 3.69864 19.7158 3.49104 19.2809C3.28563 18.8549 3.17469 18.3895 3.16582 17.9166C3.15694 17.4437 3.25033 16.9745 3.43961 16.541C4.50711 14.3049 6.33546 12.5217 8.59749 11.5104C7.15247 9.49708 6.47112 7.03523 6.67543 4.56548C6.73019 4.09603 6.88566 3.64394 7.13121 3.2401C7.37676 2.83626 7.70661 2.49019 8.0982 2.22555C8.49654 1.95433 8.94878 1.77239 9.42396 1.69217C9.89914 1.61195 10.386 1.63535 10.8513 1.76077L18.8923 3.93287C19.3574 4.05895 19.7898 4.28396 20.1599 4.59251C20.5301 4.90106 20.8292 5.28589 21.0369 5.72069C21.2421 6.14638 21.353 6.61131 21.3621 7.08376C21.3713 7.55622 21.2784 8.02509 21.0898 8.45838C20.0182 10.6946 18.1872 12.4775 15.9233 13.4893C17.3684 15.5044 18.051 17.9672 17.8493 20.4387C17.7941 20.9081 17.6382 21.3601 17.3924 21.7639C17.1466 22.1676 16.8166 22.5136 16.4249 22.7782C16.0269 23.0482 15.5754 23.2293 15.1012 23.3091C14.627 23.3889 14.1411 23.3656 13.6766 23.2408ZM18.4577 5.54187L10.4167 3.36977C10.1834 3.30659 9.93917 3.29453 9.70076 3.33441C9.46235 3.37429 9.23536 3.46518 9.03531 3.60085C8.84087 3.72998 8.67701 3.90006 8.55523 4.09918C8.43345 4.2983 8.35668 4.52164 8.33031 4.75355C8.0895 6.84651 8.82634 9.06545 10.5191 11.3501C10.5939 11.4511 10.6449 11.5677 10.6682 11.6912C10.6915 11.8147 10.6866 11.9419 10.6538 12.0633C10.6211 12.1846 10.5613 12.2969 10.4789 12.3919C10.3966 12.4868 10.2938 12.5619 10.1784 12.6116C7.56502 13.7348 5.81311 15.2831 4.96513 17.2112C4.87067 17.4251 4.82423 17.6572 4.82908 17.891C4.83392 18.1248 4.88994 18.3547 4.99318 18.5645C5.09771 18.7825 5.24806 18.9753 5.43396 19.1298C5.61986 19.2843 5.83693 19.3968 6.07033 19.4597L14.1113 21.6318C14.3446 21.6951 14.5888 21.7072 14.8272 21.6673C15.0657 21.6274 15.2926 21.5365 15.4927 21.4007C15.687 21.2719 15.8508 21.1021 15.9725 20.9033C16.0942 20.7044 16.1709 20.4813 16.1972 20.2497C16.4376 18.1678 15.702 15.9475 14.0095 13.6491C13.9353 13.5482 13.8848 13.4319 13.8618 13.3088C13.8388 13.1857 13.8437 13.059 13.8764 12.9381C13.9091 12.8172 13.9685 12.7052 14.0504 12.6105C14.1323 12.5157 14.2345 12.4406 14.3494 12.3908C16.9698 11.2575 18.7233 9.70953 19.5633 7.78878C19.6573 7.57467 19.7031 7.34253 19.6974 7.10877C19.6918 6.87502 19.6349 6.64535 19.5308 6.436C19.4266 6.21864 19.2768 6.02628 19.0917 5.87199C18.9065 5.7177 18.6902 5.60511 18.4577 5.54187ZM13.4848 19.7362L7.56127 18.1361C7.42965 18.1005 7.30878 18.0331 7.20927 17.9399C7.10975 17.8467 7.03463 17.7305 6.99048 17.6015C6.94634 17.4724 6.93452 17.3346 6.95608 17.1999C6.97763 17.0653 7.03189 16.938 7.1141 16.8292C8.11155 15.6391 9.39054 14.717 10.8349 14.1467L11.3412 13.9279C11.5141 13.8531 11.7073 13.8391 11.8892 13.8883C12.0711 13.9374 12.231 14.0467 12.3428 14.1984L12.664 14.6357C13.6221 15.8587 14.2628 17.2998 14.5288 18.8304C14.5453 18.9659 14.5284 19.1034 14.4794 19.2308C14.4304 19.3582 14.3508 19.4716 14.2477 19.561C14.1446 19.6505 14.0211 19.7132 13.8881 19.7438C13.7551 19.7743 13.6166 19.7717 13.4848 19.7362ZM9.37643 16.9L12.5365 17.7536C12.2391 17.0313 11.855 16.3479 11.3927 15.7182C10.6741 16.0269 9.99684 16.4239 9.37643 16.9Z" fill="#8679EC"/>
</g>
<defs>
<clipPath id="clip0_817_2630">
<rect width="20" height="20" fill="white" transform="translate(5.2157 0.238281) rotate(15.1165)"/>
</clipPath>
</defs>
</svg>
